#!OML:ASF I:\Actors\actors\Patient Classification 1\Patient 1\Session 1\Subject1.ASF
:FULLY-SPECIFIED
:DEGREES
836
root 0.890401 17.5463 9.40265 13.1789 -6.14536 -9.38151
lowerback 1.17032 2.1029 5.60727
upperback -7.53792 3.27162 1.74314
thorax -8.39401 1.29258 -1.5574
lowerneck -15.4502 -4.4686 -1.96601
upperneck 28.2254 -7.26517 4.35293
head 12.089 -2.92301 0.876195
rclavicle -1.36043e-014 5.96354e-015
rhumerus 8.07045 44.8791 -58.3461
rradius 81.3728
rwrist 35.5602
rhand -2.37097 -41.9973
rfingers 7.12502
rthumb 23.3175 -70.6052
lclavicle -1.36043e-014 5.96354e-015
lhumerus -23.1422 -30.6091 77.0924
lradius 103.644
lwrist -20.8443
lhand -25.7859 -30.8898
lfingers 7.12502
lthumb 0.752573 -0.91141
rfemur -8.77466 26.8565 22.4343
rtibia 2.21906
rfoot -10.4108 -22.1038
rtoes -3.41541
lfemur 4.25659 -49.0364 -12.394
ltibia -4.7191
lfoot -36.5595 57.6307
ltoes 21.4186
837
root 0.891652 17.5455 9.40618 13.1991 -6.10761 -9.27816
lowerback 1.15288 2.0374 5.58687
upperback -7.5371 3.18385 1.78699
thorax -8.39206 1.25251 -1.4925
lowerneck -15.4081 -4.22251 -1.75627
upperneck 28.1101 -6.89496 4.14301
head 12.0019 -2.76505 0.820309
rclavicle -1.32316e-014 -3.57812e-015
rhumerus 7.71407 45.2367 -59.3415
rradius 84.2061
rwrist 36.5878
rhand -3.64075 -41.6929
rfingers 7.12502
rthumb 22.0989 -70.45
lclavicle -1.32316e-014 -3.57812e-015
lhumerus -23.3656 -30.4266 77.2359
lradius 103.731
lwrist -20.82
lhand -25.8026 -30.644
lfingers 7.12502
lthumb 0.736379 -0.665507
rfemur -8.82806 26.7813 22.284
rtibia 2.257
rfoot -10.496 -22.0448
rtoes -3.14729
lfemur 4.14512 -49.0131 -12.4568
ltibia -4.65401
lfoot -36.2954 57.6307
ltoes 21.1473
838
root 0.898233 17.5411 9.40689 13.1474 -5.99885 -9.63959
lowerback 1.33306 2.00169 6.19472
upperback -7.53808 3.19274 1.88886
thorax -8.48191 1.21561 -1.72915
lowerneck -15.2904 -3.98095 -1.50513
upperneck 28.0073 -6.57642 4.03498
head 11.9114 -2.61356 0.788622
rclavicle -1.73067e-014 1.63003e-014
rhumerus 7.93392 45.8455 -59.9502
rradius 86.6683
rwrist 37.8354
rhand -5.3546 -40.8012
rfingers 7.12502
rthumb 20.4527 -69.744
lclavicle -1.73067e-014 1.63003e-014
lhumerus -23.5855 -30.3601 77.3851
lradius 103.789
lwrist -20.7408
lhand -25.9462 -30.5689
lfingers 7.12502
lthumb 0.597735 -0.590023
rfemur -8.7049 26.6077 22.7757
rtibia 2.29632
rfoot -10.5124 -21.8841
rtoes -3.16642
lfemur 4.22005 -48.6959 -12.0917
ltibia -4.68376
lfoot -35.5881 57.4654
ltoes 20.6616
839
root 0.908727 17.5317 9.40474 12.9884 -5.87594 -10.4304
lowerback 1.69835 1.99691 7.36131
upperback -7.50196 3.3007 2.05605
thorax -8.61721 1.1891 -2.21946
lowerneck -15.2746 -3.786 -1.23103
upperneck 28.0293 -6.31379 3.84176
head 11.8899 -2.49093 0.710392
rclavicle -1.36416e-014 -2.3059e-014
rhumerus 8.94253 46.9102 -59.7931
rradius 88.6431
rwrist 39.152
rhand -7.63037 -39.8726
rfingers 7.12502
rthumb 18.2645 -69.0351
lclavicle -1.36416e-014 -2.3059e-014
lhumerus -23.7669 -30.3658 77.5225
lradius 103.816
lwrist -20.6898
lhand -26.0627 -30.693
lfingers 7.12502
lthumb 0.485224 -0.71377
rfemur -8.3357 26.2512 23.8893
rtibia 2.26319
rfoot -10.3844 -21.4913
rtoes -3.69038
lfemur 4.62661 -48.1636 -11.4413
ltibia -4.85973
lfoot -34.6928 57.2141
ltoes 20.0981
840
root 0.914237 17.5263 9.40365 12.9312 -6.04225 -10.8122
lowerback 1.85334 2.04196 7.99214
upperback -7.46984 3.41749 2.09575
thorax -8.64235 1.20294 -2.5405
lowerneck -15.3402 -3.57829 -0.929885
upperneck 28.1115 -6.04706 3.6553
head 11.9095 -2.36013 0.628837
rclavicle 2.47238e-014 -1.35174e-014
rhumerus 10.4295 48.2731 -59.2646
rradius 90.2273
rwrist 40.6876
rhand -9.83374 -39.5318
rfingers 7.12502
rthumb 16.1437 -68.8795
lclavicle 2.47238e-014 -1.35174e-014
lhumerus -23.8466 -30.3581 77.5562
lradius 103.795
lwrist -20.6813
lhand -26.022 -30.7758
lfingers 7.12502
lthumb 0.524488 -0.796665
rfemur -8.19773 26.0384 24.3921
rtibia 2.25221
rfoot -10.2376 -21.0372
rtoes -4.01299
lfemur 4.97339 -47.92 -11.2645
ltibia -4.99421
lfoot -34.6747 57.2404
ltoes 20.0554
841
root 0.915497 17.5247 9.40335 12.9524 -6.42183 -10.801
lowerback 1.89641 2.14234 8.07329
upperback -7.4648 3.55773 2.04522
thorax -8.6415 1.26389 -2.65178
lowerneck -15.4088 -3.36964 -0.704392
upperneck 28.2173 -5.80977 3.63353
head 11.9505 -2.2288 0.616793
rclavicle -3.59303e-014 2.14687e-014
rhumerus 12.1123 49.5212 -58.5992
rradius 91.4772
rwrist 42.3387
rhand -11.5746 -38.9192
rfingers 7.12502
rthumb 14.4669 -68.3949
lclavicle -3.59303e-014 2.14687e-014
lhumerus -23.8452 -30.3638 77.5873
lradius 103.727
lwrist -20.6753
lhand -26.0584 -30.9235
lfingers 7.12502
lthumb 0.489347 -0.944281
rfemur -8.27552 26.0977 24.3199
rtibia 2.30916
rfoot -10.1922 -20.7108
rtoes -4.03227
lfemur 5.18939 -47.9084 -11.4978
ltibia -5.01991
lfoot -35.3856 57.4292
ltoes 20.4014
842
root 0.916331 17.5235 9.40321 12.9487 -6.82681 -10.7659
lowerback 1.96802 2.28108 7.92337
upperback -7.45937 3.74685 2.11263
thorax -8.66916 1.36889 -2.51634
lowerneck -15.512 -3.21292 -0.701619
upperneck 28.3987 -5.6107 3.68565
head 12.0397 -2.12652 0.664089
rclavicle -2.93456e-014 9.14409e-015
rhumerus 14.0343 50.7489 -57.4243
rradius 92.4785
rwrist 43.7207
rhand -12.8154 -38.1253
rfingers 7.12502
rthumb 13.2711 -67.6828
lclavicle -2.93456e-014 9.14409e-015
lhumerus -23.8369 -30.3419 77.8688
lradius 103.634
lwrist -20.6466
lhand -26.3723 -31.2989
lfingers 7.12502
lthumb 0.186211 -1.31928
rfemur -8.32855 26.2236 24.2325
rtibia 2.36806
rfoot -10.153 -20.4488
rtoes -4.04603
lfemur 5.45446 -47.9494 -11.8121
ltibia -5.01877
lfoot -36.2247 57.6328
ltoes 20.7745
843
root 0.916629 17.5226 9.40344 12.9869 -7.21436 -10.7372
lowerback 1.95822 2.41842 7.81211
upperback -7.45626 3.92514 2.14533
thorax -8.6495 1.46641 -2.4343
lowerneck -15.6426 -3.06544 -0.665499
upperneck 28.5941 -5.43319 3.72963
head 12.1398 -2.03083 0.699527
rclavicle 4.05521e-014 -3.95581e-014
rhumerus 16.0451 51.9433 -56.1563
rradius 93.279
rwrist 44.596
rhand -13.3188 -37.8829
rfingers 7.12502
rthumb 12.7859 -67.4713
lclavicle 4.05521e-014 -3.95581e-014
lhumerus -23.8444 -30.3434 78.1053
lradius 103.585
lwrist -20.6021
lhand -26.5097 -31.4082
lfingers 7.12502
lthumb 0.0534419 -1.4285
rfemur -8.42716 26.2881 24.136
rtibia 2.41795
rfoot -10.0549 -20.1717
rtoes -4.20032
lfemur 5.69245 -48.0924 -12.0946
ltibia -5.04355
lfoot -37.1157 57.9099
ltoes 21.2469
844
root 0.918658 17.5229 9.40249 13.0393 -7.49805 -10.7327
lowerback 1.95632 2.52318 8.02871
upperback -7.45947 4.0678 1.98761
thorax -8.6156 1.51599 -2.73137
lowerneck -15.5539 -2.861 -0.128142
upperneck 28.4817 -5.23676 3.57326
head 12.0513 -1.90849 0.580336
rclavicle -1.40019e-014 1.39149e-014
rhumerus 17.7087 52.8084 -55.4771
rradius 93.8685
rwrist 44.8884
rhand -13.6426 -37.966
rfingers 7.12502
rthumb 12.4737 -67.5738
lclavicle -1.40019e-014 1.39149e-014
lhumerus -23.7911 -30.5252 78.0107
lradius 103.619
lwrist -20.5927
lhand -26.2304 -31.1992
lfingers 7.12502
lthumb 0.323257 -1.21975
rfemur -8.52033 26.1895 24.0674
rtibia 2.43245
rfoot -9.96336 -19.8397
rtoes -4.33921
lfemur 5.82424 -48.1476 -12.2544
ltibia -5.07128
lfoot -37.7341 58.0748
ltoes 21.6678
845
root 0.915819 17.529 9.40389 13.1504 -7.76664 -10.3129
lowerback 1.79758 2.62606 7.61532
upperback -7.49458 4.15154 1.80215
thorax -8.55748 1.58066 -2.6989
lowerneck -15.5436 -2.72122 0.176256
upperneck 28.4214 -5.10959 3.54528
head 12.0136 -1.82329 0.537263
rclavicle 4.70871e-015 1.82882e-014
rhumerus 18.9121 53.3602 -55.1314
rradius 94.2843
rwrist 44.7447
rhand -14.2482 -37.7747
rfingers 7.12502
rthumb 11.8898 -67.4171
lclavicle 4.70871e-015 1.82882e-014
lhumerus -23.7278 -30.7037 78.0383
lradius 103.658
lwrist -20.7138
lhand -26.0768 -31.4076
lfingers 7.12502
lthumb 0.471534 -1.42843
rfemur -8.75085 26.2544 23.4349
rtibia 2.40093
rfoot -9.94303 -19.7601
rtoes -4.25191
lfemur 5.67281 -48.3408 -12.6951
ltibia -4.98476
lfoot -38.4267 58.2377
ltoes 22.0954
846
root 0.905718 17.5392 9.40774 13.3393 -8.03884 -9.48486
lowerback 1.43008 2.72372 6.53151
upperback -7.55738 4.17112 1.60635
thorax -8.44825 1.66219 -2.29177
lowerneck -15.5953 -2.61519 0.311719
upperneck 28.3922 -5.00495 3.58192
head 12.0085 -1.75625 0.542863
rclavicle -1.02871e-014 7.15625e-015
rhumerus 19.5906 53.5925 -55.2148
rradius 94.5546
rwrist 44.0264
rhand -14.7507 -36.969
rfingers 7.12502
rthumb 11.4052 -66.6388
lclavicle -1.02871e-014 7.15625e-015
lhumerus -23.6817 -30.8046 78.2367
lradius 103.65
lwrist -20.9739
lhand -26.1948 -31.5892
lfingers 7.12502
lthumb 0.357642 -1.60975
rfemur -9.17589 26.6046 22.2261
rtibia 2.37279
rfoot -9.99276 -20.0362
rtoes -4.13252
lfemur 5.20436 -48.7391 -13.3737
ltibia -4.76986
lfoot -39.3645 58.4143
ltoes 22.6518
847
root 0.898178 17.5442 9.40911 13.4372 -8.04238 -9.0992
lowerback 1.23039 2.74327 5.97418
upperback -7.59012 4.14522 1.54014
thorax -8.39352 1.68758 -2.04235
lowerneck -15.6192 -2.53088 0.396436
upperneck 28.3187 -4.92466 3.65285
head 11.9832 -1.70269 0.566558
rclavicle -1.25483e-014 5.56597e-015
rhumerus 19.6677 53.6498 -55.9421
rradius 95.0535
rwrist 41.3492
rhand -13.8683 -36.442
rfingers 7.12502
rthumb 12.2561 -66.0629
lclavicle -1.25483e-014 5.56597e-015
lhumerus -23.6396 -30.8399 78.4779
lradius 103.635
lwrist -21.2443
lhand -26.6192 -31.7453
lfingers 7.12502
lthumb -0.0523377 -1.76552
rfemur -9.36645 26.8089 21.6738
rtibia 2.33701
rfoot -10.0325 -20.3314
rtoes -4.23962
lfemur 4.85499 -48.898 -13.557
ltibia -4.65244
lfoot -39.499 58.4344
ltoes 22.8332
